# xmcd
# 
# Track frame offsets:
#     150
#     35390
#     65398
#     118160
#     142023
#     176428
# 
# Disc length: 2802
# 
# Revision: 8
# Processed by: cddbd v1.5.2PL0 Copyright (c) Steve Scherf et al.
# Submitted via: fre:ac v1.0.17
# 
DISCID=510af006
DTITLE=Eric Clapton - E.C. Was Here
DYEAR=1975
DGENRE=Rock
TTITLE0=Have You Ever Loved A Woman
TTITLE1=Presence Of The Lord
TTITLE2=Driftin' Blues
TTITLE3=Can't Find My Way Home
TTITLE4=Ramblin' On My Mind
TTITLE5=Further On Up The Road
EXTD=YEAR: 1975 ID3G: 17
EXTT0=
EXTT1=
EXTT2=
EXTT3=
EXTT4=
EXTT5=
PLAYORDER=
